<svg xmlns="http://www.w3.org/2000/svg" xmlns:xlink="http://www.w3.org/1999/xlink" width="500" zoomAndPan="magnify" viewBox="0 0 375 374.999991" height="500" preserveAspectRatio="xMidYMid meet" version="1.0"><defs><g/><clipPath id="f21e6f0e78"><path d="M 92.722656 89.921875 L 282.472656 89.921875 L 282.472656 230 L 92.722656 230 Z M 92.722656 89.921875 " clip-rule="nonzero"/></clipPath></defs><g clip-path="url(#f21e6f0e78)"><path fill="#007bff" d="M 169.503906 146.332031 L 149.101562 125.929688 L 118.707031 156.328125 L 114.242188 151.859375 L 149.101562 116.996094 L 173.972656 141.863281 L 225.886719 89.953125 L 282.265625 146.332031 L 272.269531 156.328125 L 267.804688 151.859375 L 273.332031 146.332031 L 225.886719 98.886719 L 140.046875 184.722656 L 149.101562 193.777344 C 174.617188 168.261719 200.132812 142.746094 225.652344 117.230469 L 225.882812 116.996094 L 282.261719 173.375 L 225.886719 229.757812 L 191.023438 194.894531 L 195.488281 190.429688 L 225.886719 220.824219 L 273.332031 173.375 L 239.410156 139.453125 L 205.480469 173.378906 L 225.882812 193.78125 L 256.277344 163.386719 L 260.746094 167.851562 L 225.886719 202.710938 L 201.019531 177.84375 L 149.101562 229.757812 L 92.722656 173.378906 L 102.714844 163.386719 L 107.183594 167.851562 L 101.652344 173.378906 L 149.101562 220.828125 L 234.9375 134.988281 L 225.882812 125.933594 C 200.367188 151.449219 174.847656 176.964844 149.332031 202.480469 L 149.101562 202.714844 L 92.722656 146.332031 L 149.101562 89.953125 L 183.964844 124.8125 L 179.496094 129.28125 L 149.101562 98.886719 L 101.65625 146.332031 L 135.582031 180.253906 Z M 169.503906 146.332031 " fill-opacity="1" fill-rule="evenodd"/></g><g fill="#ffffff" fill-opacity="1"><g transform="translate(22.359378, 278.177384)"><g><path d="M 6.609375 -9.4375 L 16.9375 -9.4375 L 16.9375 -13.53125 L 6.609375 -13.53125 L 6.609375 -18 L 18.09375 -18 L 18.09375 -22.09375 L 2.015625 -22.09375 L 2.015625 0 L 18.40625 0 L 18.40625 -4.09375 L 6.609375 -4.09375 Z M 6.609375 -9.4375 "/></g></g></g><g fill="#ffffff" fill-opacity="1"><g transform="translate(41.99476, 278.177384)"><g><path d="M 6.609375 -22.09375 L 2.015625 -22.09375 L 2.015625 0 L 17.375 0 L 17.375 -4.09375 L 6.609375 -4.09375 Z M 6.609375 -22.09375 "/></g></g></g><g fill="#ffffff" fill-opacity="1"><g transform="translate(59.831005, 278.177384)"><g><path d="M 6.609375 -9.4375 L 16.9375 -9.4375 L 16.9375 -13.53125 L 6.609375 -13.53125 L 6.609375 -18 L 18.09375 -18 L 18.09375 -22.09375 L 2.015625 -22.09375 L 2.015625 0 L 18.40625 0 L 18.40625 -4.09375 L 6.609375 -4.09375 Z M 6.609375 -9.4375 "/></g></g></g><g fill="#ffffff" fill-opacity="1"><g transform="translate(79.466387, 278.177384)"><g><path d="M 21.015625 -11.953125 L 11.796875 -11.953125 L 11.796875 -8.09375 L 17.03125 -8.09375 C 16.578125 -4.875 14.375 -3.265625 11.640625 -3.265625 C 7.8125 -3.265625 5.671875 -6.390625 5.671875 -11.046875 C 5.671875 -15.578125 7.78125 -18.65625 11.640625 -18.65625 C 14.34375 -18.65625 15.953125 -17.15625 16.359375 -14.828125 L 20.859375 -15.109375 C 20.109375 -19.765625 16.84375 -22.625 11.390625 -22.625 C 5.5 -22.625 1.09375 -18.21875 1.09375 -11.046875 C 1.09375 -3.875 5.546875 0.71875 11.140625 0.71875 C 14.09375 0.71875 16.203125 -0.59375 17.3125 -2.359375 L 18.03125 0 L 21.015625 0 Z M 21.015625 -11.953125 "/></g></g></g><g fill="#ffffff" fill-opacity="1"><g transform="translate(102.482903, 278.177384)"><g><path d="M 21.53125 0 L 13.90625 -22.09375 L 8.59375 -22.09375 L 0.78125 0 L 5.640625 0 L 7.140625 -4.59375 L 15.140625 -4.59375 L 16.625 0 Z M 9.28125 -11.109375 L 11.171875 -17.46875 L 13.03125 -11.109375 L 13.9375 -8.375 L 8.375 -8.375 Z M 9.28125 -11.109375 "/></g></g></g><g fill="#ffffff" fill-opacity="1"><g transform="translate(124.785972, 278.177384)"><g><path d="M 15.265625 -12.40625 C 15.265625 -10.859375 15.296875 -9.28125 15.328125 -7.734375 C 14.609375 -8.96875 13.875 -10.171875 13.09375 -11.421875 L 6.515625 -22.09375 L 2.015625 -22.09375 L 2.015625 0 L 6.609375 0 L 6.609375 -9.6875 C 6.609375 -11.203125 6.609375 -12.78125 6.578125 -14.34375 C 7.359375 -13.03125 8.125 -11.734375 8.9375 -10.421875 L 15.359375 0 L 19.859375 0 L 19.859375 -22.09375 L 15.265625 -22.09375 Z M 15.265625 -12.40625 "/></g></g></g><g fill="#ffffff" fill-opacity="1"><g transform="translate(146.654771, 278.177384)"><g><path d="M 0.625 -22.09375 L 0.625 -18 L 7.265625 -18 L 7.265625 0 L 11.859375 0 L 11.859375 -18 L 18.46875 -18 L 18.46875 -22.09375 Z M 0.625 -22.09375 "/></g></g></g><g fill="#ffffff" fill-opacity="1"><g transform="translate(165.738279, 278.177384)"><g/></g></g><g fill="#ffffff" fill-opacity="1"><g transform="translate(174.113557, 278.177384)"><g><path d="M 10.609375 0.46875 C 16.71875 0.46875 19.140625 -2.578125 19.140625 -6.078125 C 19.140625 -9.53125 16.90625 -11.484375 12.8125 -12.34375 L 8.9375 -13.1875 C 6.171875 -13.78125 5.09375 -14.765625 5.09375 -16.515625 C 5.09375 -18.828125 6.953125 -20.171875 10.109375 -20.171875 C 13.5 -20.171875 15.453125 -18.6875 15.703125 -15.890625 L 18.46875 -15.890625 C 18.09375 -20.140625 15.109375 -22.53125 10.203125 -22.53125 C 5.125 -22.53125 2.359375 -19.984375 2.359375 -16.265625 C 2.359375 -12.75 4.96875 -11.265625 8.5625 -10.515625 L 11.671875 -9.875 C 15.109375 -9.15625 16.359375 -8 16.359375 -5.921875 C 16.359375 -3.4375 14.484375 -1.890625 10.703125 -1.890625 C 6.890625 -1.890625 4.65625 -3.46875 4.34375 -7.140625 L 1.578125 -7.140625 C 1.953125 -2.046875 5.09375 0.46875 10.609375 0.46875 Z M 10.609375 0.46875 "/></g></g></g><g fill="#ffffff" fill-opacity="1"><g transform="translate(194.834629, 278.177384)"><g><path d="M 12.40625 0.53125 C 18.625 0.53125 22.875 -4.21875 22.875 -11.046875 C 22.875 -17.75 18.625 -22.5 12.40625 -22.5 C 6.234375 -22.5 1.984375 -17.75 1.984375 -11.046875 C 1.984375 -4.28125 6.234375 0.53125 12.40625 0.53125 Z M 12.4375 -2.046875 C 8.03125 -2.046875 4.9375 -5.546875 4.9375 -11.046875 C 4.9375 -16.484375 8.03125 -19.921875 12.4375 -19.921875 C 16.8125 -19.921875 19.921875 -16.484375 19.921875 -11.046875 C 19.921875 -5.5 16.875 -2.046875 12.4375 -2.046875 Z M 12.4375 -2.046875 "/></g></g></g><g fill="#ffffff" fill-opacity="1"><g transform="translate(219.681307, 278.177384)"><g><path d="M 17.75 -22.09375 L 2.640625 -22.09375 L 2.640625 0 L 5.53125 0 L 5.53125 -10.109375 L 15.640625 -10.109375 L 15.640625 -12.625 L 5.53125 -12.625 L 5.53125 -19.578125 L 17.75 -19.578125 Z M 17.75 -22.09375 "/></g></g></g><g fill="#ffffff" fill-opacity="1"><g transform="translate(238.199986, 278.177384)"><g><path d="M 1.09375 -22.09375 L 1.09375 -19.578125 L 8.46875 -19.578125 L 8.46875 0 L 11.359375 0 L 11.359375 -19.578125 L 18.75 -19.578125 L 18.75 -22.09375 Z M 1.09375 -22.09375 "/></g></g></g><g fill="#ffffff" fill-opacity="1"><g transform="translate(258.021483, 278.177384)"><g><path d="M 22.25 -8.90625 L 21.0625 -3.90625 L 19.890625 -8.90625 L 16.328125 -22.09375 L 13.0625 -22.09375 L 9.46875 -8.90625 L 8.25 -3.9375 L 7.171875 -8.90625 L 3.875 -22.09375 L 0.9375 -22.09375 L 6.828125 0 L 9.59375 0 L 13.40625 -14.34375 L 14.671875 -19.328125 L 15.953125 -14.34375 L 19.796875 0 L 22.5625 0 L 28.703125 -22.09375 L 25.75 -22.09375 Z M 22.25 -8.90625 "/></g></g></g><g fill="#ffffff" fill-opacity="1"><g transform="translate(287.645165, 278.177384)"><g><path d="M 21.28125 0 L 12.75 -22.09375 L 9.5 -22.09375 L 0.9375 0 L 4 0 L 6.390625 -6.484375 L 15.765625 -6.484375 L 18.09375 0 Z M 10.390625 -17.375 L 11.140625 -19.671875 L 11.859375 -17.375 L 14.859375 -9 L 7.328125 -9 Z M 10.390625 -17.375 "/></g></g></g><g fill="#ffffff" fill-opacity="1"><g transform="translate(309.85517, 278.177384)"><g><path d="M 19.078125 -7.046875 C 18.859375 -9.09375 17.625 -10.359375 15.703125 -10.734375 C 18.03125 -11.390625 19.640625 -13.40625 19.640625 -16.265625 C 19.640625 -19.796875 17.09375 -22.09375 12.875 -22.09375 L 2.640625 -22.09375 L 2.640625 0 L 5.53125 0 L 5.53125 -9.53125 L 12.34375 -9.53125 C 14.921875 -9.53125 16.046875 -8.5 16.328125 -5.890625 L 16.96875 0 L 19.890625 0 Z M 5.53125 -12.046875 L 5.53125 -19.578125 L 12.375 -19.578125 C 15.171875 -19.578125 16.6875 -18.3125 16.6875 -15.984375 C 16.6875 -13.46875 14.890625 -12.046875 11.890625 -12.046875 Z M 5.53125 -12.046875 "/></g></g></g><g fill="#ffffff" fill-opacity="1"><g transform="translate(332.065175, 278.177384)"><g><path d="M 5.53125 -10.109375 L 17.28125 -10.109375 L 17.28125 -12.625 L 5.53125 -12.625 L 5.53125 -19.578125 L 18.28125 -19.578125 L 18.28125 -22.09375 L 2.640625 -22.09375 L 2.640625 0 L 18.5625 0 L 18.5625 -2.515625 L 5.53125 -2.515625 Z M 5.53125 -10.109375 "/></g></g></g></svg>