<svg xmlns="http://www.w3.org/2000/svg" xmlns:xlink="http://www.w3.org/1999/xlink" width="500" zoomAndPan="magnify" viewBox="0 0 375 374.999991" height="500" preserveAspectRatio="xMidYMid meet" version="1.0"><defs><clipPath id="4e92537e64"><path d="M 0 40.320312 L 375 40.320312 L 375 317 L 0 317 Z M 0 40.320312 " clip-rule="nonzero"/></clipPath></defs><g clip-path="url(#4e92537e64)"><path fill="#007bff" d="M 151.902344 151.921875 L 111.539062 111.558594 L 51.40625 171.695312 L 42.570312 162.859375 L 111.539062 93.886719 L 160.738281 143.085938 L 263.445312 40.382812 L 374.984375 151.921875 L 355.210938 171.695312 L 346.375 162.859375 L 357.3125 151.921875 L 263.445312 58.054688 L 93.621094 227.871094 L 111.539062 245.785156 C 162.015625 195.308594 212.496094 144.824219 262.976562 94.347656 L 263.441406 93.886719 L 374.980469 205.425781 L 263.445312 316.96875 L 194.472656 247.996094 L 203.308594 239.160156 L 263.445312 299.296875 L 357.3125 205.425781 L 290.199219 138.308594 L 223.078125 205.429688 L 263.441406 245.792969 L 323.570312 185.660156 L 332.414062 194.492188 L 263.445312 263.457031 L 214.246094 214.261719 L 111.539062 316.96875 L 0 205.429688 L 19.769531 185.660156 L 28.605469 194.496094 L 17.667969 205.429688 L 111.535156 299.300781 L 281.351562 129.480469 L 263.433594 111.5625 C 212.957031 162.042969 162.472656 212.523438 111.996094 263.003906 L 111.535156 263.464844 L 0 151.921875 L 111.539062 40.382812 L 180.507812 109.347656 L 171.671875 118.183594 L 111.539062 58.054688 L 17.671875 151.921875 L 84.785156 219.035156 Z M 151.902344 151.921875 " fill-opacity="1" fill-rule="evenodd"/></g></svg>